<svg width="121" height="34" viewBox="0 0 121 34" fill="none" xmlns="http://www.w3.org/2000/svg">
<path d="M20.76 34L19.9704 34.6136L20.2707 35H20.76V34ZM7.032 16.336L6.25855 15.7021L5.75265 16.3195L6.24242 16.9496L7.032 16.336ZM20.328 0.111999V-0.888001H19.8546L19.5546 -0.521862L20.328 0.111999ZM29.64 0.111999L30.4019 0.759707L31.8027 -0.888001H29.64V0.111999ZM14.664 17.728H13.664V20.4482L15.4259 18.3757L14.664 17.728ZM14.664 14.656L15.4452 14.0318L13.664 11.8025V14.656H14.664ZM30.12 34V35H32.199L30.9012 33.3758L30.12 34ZM0.264 34H-0.736V35H0.264V34ZM0.264 0.111999V-0.888001H-0.736V0.111999H0.264ZM7.8 0.111999H8.8V-0.888001H7.8V0.111999ZM7.8 34V35H8.8V34H7.8ZM21.5496 33.3864L7.82158 15.7224L6.24242 16.9496L19.9704 34.6136L21.5496 33.3864ZM7.80545 16.9699L21.1014 0.745859L19.5546 -0.521862L6.25855 15.7021L7.80545 16.9699ZM20.328 1.112H29.64V-0.888001H20.328V1.112ZM28.8781 -0.53571L13.9021 17.0803L15.4259 18.3757L30.4019 0.759707L28.8781 -0.53571ZM15.664 17.728V14.656H13.664V17.728H15.664ZM13.8828 15.2802L29.3388 34.6242L30.9012 33.3758L15.4452 14.0318L13.8828 15.2802ZM30.12 33H20.76V35H30.12V33ZM1.264 34V0.111999H-0.736V34H1.264ZM0.264 1.112H7.8V-0.888001H0.264V1.112ZM6.8 0.111999V34H8.8V0.111999H6.8ZM7.8 33H0.264V35H7.8V33ZM33.264 34H32.264V35H33.264V34ZM33.264 0.111999V-0.888001H32.264V0.111999H33.264ZM40.8 0.111999H41.8V-0.888001H40.8V0.111999ZM40.8 34V35H41.8V34H40.8ZM34.264 34V0.111999H32.264V34H34.264ZM33.264 1.112H40.8V-0.888001H33.264V1.112ZM39.8 0.111999V34H41.8V0.111999H39.8ZM40.8 33H33.264V35H40.8V33ZM53.0865 20.032H52.0865V21.032H53.0865V20.032ZM53.0865 14.464V13.464H52.0865V14.464H53.0865ZM63.6945 13.312L63.0162 12.5772L63.009 12.5838L63.002 12.5906L63.6945 13.312ZM63.7425 7.168L63.0354 7.87511V7.87511L63.7425 7.168ZM53.0865 5.968H52.0865V6.968H53.0865V5.968ZM53.0865 0.111999V-0.888001H52.0865V0.111999H53.0865ZM67.0545 1.408L66.6006 2.29904L66.6073 2.30246L66.6141 2.30579L67.0545 1.408ZM71.0385 4.912L71.8814 4.37396L71.0385 4.912ZM71.0385 15.328L71.8762 15.8743L71.8814 15.866L71.0385 15.328ZM67.0065 18.784L67.4403 19.685L67.0065 18.784ZM47.3265 34H46.3265V35H47.3265V34ZM47.3265 0.111999V-0.888001H46.3265V0.111999H47.3265ZM54.8625 0.111999H55.8625V-0.888001H54.8625V0.111999ZM54.8625 34V35H55.8625V34H54.8625ZM65.7585 34L64.9484 34.5863L65.2478 35H65.7585V34ZM55.1985 19.408L54.9371 18.4428L53.5395 18.8213L54.3884 19.9943L55.1985 19.408ZM62.1105 17.536L62.9052 16.929L62.4974 16.3952L61.8491 16.5708L62.1105 17.536ZM74.6865 34V35H76.7087L75.4812 33.393L74.6865 34ZM54.0865 20.032V14.464H52.0865V20.032H54.0865ZM53.0865 15.464H60.2385V13.464H53.0865V15.464ZM60.2385 15.464C61.9068 15.464 63.3426 15.036 64.387 14.0334L63.002 12.5906C62.4464 13.124 61.5782 13.464 60.2385 13.464V15.464ZM64.3728 14.0468C65.443 13.0589 65.9425 11.7345 65.9425 10.192H63.9425C63.9425 11.2735 63.61 12.0291 63.0162 12.5772L64.3728 14.0468ZM65.9425 10.192C65.9425 8.73272 65.4521 7.46339 64.4496 6.46089L63.0354 7.87511C63.6329 8.47261 63.9425 9.21928 63.9425 10.192H65.9425ZM64.4496 6.46089C63.4066 5.4179 61.9654 4.968 60.2865 4.968V6.968C61.6156 6.968 62.4784 7.31809 63.0354 7.87511L64.4496 6.46089ZM60.2865 4.968H53.0865V6.968H60.2865V4.968ZM54.0865 5.968V0.111999H52.0865V5.968H54.0865ZM53.0865 1.112H61.1505V-0.888001H53.0865V1.112ZM61.1505 1.112C63.2605 1.112 65.068 1.5183 66.6006 2.29904L67.5084 0.51696C65.649 -0.430306 63.5205 -0.888001 61.1505 -0.888001V1.112ZM66.6141 2.30579C68.1556 3.06198 69.3401 4.10979 70.1956 5.45004L71.8814 4.37396C70.8169 2.70621 69.3455 1.41801 67.4949 0.51021L66.6141 2.30579ZM70.1956 5.45004C71.0434 6.77833 71.4785 8.31604 71.4785 10.096H73.4785C73.4785 7.97196 72.9536 6.05367 71.8814 4.37396L70.1956 5.45004ZM71.4785 10.096C71.4785 11.9114 71.0417 13.4643 70.1956 14.79L71.8814 15.866C72.9553 14.1837 73.4785 12.2486 73.4785 10.096H71.4785ZM70.2009 14.7817C69.3496 16.087 68.1518 17.1227 66.5727 17.883L67.4403 19.685C69.3172 18.7813 70.8074 17.513 71.8761 15.8743L70.2009 14.7817ZM66.5727 17.883C65.0063 18.6372 63.1285 19.032 60.9105 19.032V21.032C63.3645 21.032 65.5507 20.5948 67.4403 19.685L66.5727 17.883ZM60.9105 19.032H53.0865V21.032H60.9105V19.032ZM48.3265 34V0.111999H46.3265V34H48.3265ZM47.3265 1.112H54.8625V-0.888001H47.3265V1.112ZM53.8625 0.111999V34H55.8625V0.111999H53.8625ZM54.8625 33H47.3265V35H54.8625V33ZM66.5686 33.4137L56.0086 18.8217L54.3884 19.9943L64.9484 34.5863L66.5686 33.4137ZM55.4599 20.3732L62.3719 18.5012L61.8491 16.5708L54.9371 18.4428L55.4599 20.3732ZM61.3158 18.143L73.8918 34.607L75.4812 33.393L62.9052 16.929L61.3158 18.143ZM74.6865 33H65.7585V35H74.6865V33ZM77.9827 34H76.9827V35H77.9827V34ZM77.9827 0.111999V-0.888001H76.9827V0.111999H77.9827ZM85.5188 0.111999H86.5188V-0.888001H85.5188V0.111999ZM85.5188 34V35H86.5188V34H85.5188ZM78.9827 34V0.111999H76.9827V34H78.9827ZM77.9827 1.112H85.5188V-0.888001H77.9827V1.112ZM84.5188 0.111999V34H86.5188V0.111999H84.5188ZM85.5188 33H77.9827V35H85.5188V33ZM92.0452 34H91.0452V35H92.0452V34ZM92.0452 0.111999V-0.888001H91.0452V0.111999H92.0452ZM97.3252 0.111999L98.2739 -0.204229L98.046 -0.888001H97.3252V0.111999ZM99.5813 6.88H100.581V6.71772L100.53 6.56377L99.5813 6.88ZM99.5813 34V35H100.581V34H99.5813ZM115.421 34L114.633 34.6153L115.932 36.2801L116.397 34.2199L115.421 34ZM95.4532 8.416L94.4777 8.19608L94.3736 8.658L94.6649 9.03127L95.4532 8.416ZM97.3252 0.111999L98.1136 -0.503272L96.8142 -2.16812L96.3497 -0.107916L97.3252 0.111999ZM117.293 25.696L118.269 25.9159L118.373 25.454L118.082 25.0807L117.293 25.696ZM115.421 34L114.463 34.2855L114.676 35H115.421V34ZM113.405 27.232H112.405V27.3778L112.447 27.5175L113.405 27.232ZM113.405 0.111999V-0.888001H112.405V0.111999H113.405ZM120.941 0.111999H121.941V-0.888001H120.941V0.111999ZM120.941 34V35H121.941V34H120.941ZM93.0452 34V0.111999H91.0452V34H93.0452ZM92.0452 1.112H97.3252V-0.888001H92.0452V1.112ZM96.3766 0.428226L98.6326 7.19623L100.53 6.56377L98.2739 -0.204229L96.3766 0.428226ZM98.5813 6.88V34H100.581V6.88H98.5813ZM99.5813 33H92.0452V35H99.5813V33ZM116.21 33.3847L96.2416 7.80073L94.6649 9.03127L114.633 34.6153L116.21 33.3847ZM96.4288 8.63591L98.3008 0.331913L96.3497 -0.107916L94.4777 8.19608L96.4288 8.63591ZM96.5369 0.72727L116.505 26.3113L118.082 25.0807L98.1136 -0.503272L96.5369 0.72727ZM116.318 25.4761L114.446 33.7801L116.397 34.2199L118.269 25.9159L116.318 25.4761ZM116.38 33.7145L114.364 26.9465L112.447 27.5175L114.463 34.2855L116.38 33.7145ZM114.405 27.232V0.111999H112.405V27.232H114.405ZM113.405 1.112H120.941V-0.888001H113.405V1.112ZM119.941 0.111999V34H121.941V0.111999H119.941ZM120.941 33H115.421V35H120.941V33Z" fill="white"/>
</svg>
